<?xml version="1.0" encoding="UTF-8" standalone="no"?>
<!-- Created with Inkscape (http://www.inkscape.org/) -->

<svg
   xmlns:dc="http://purl.org/dc/elements/1.1/"
   xmlns:cc="http://creativecommons.org/ns#"
   xmlns:rdf="http://www.w3.org/1999/02/22-rdf-syntax-ns#"
   xmlns:svg="http://www.w3.org/2000/svg"
   xmlns="http://www.w3.org/2000/svg"
   xmlns:sodipodi="http://sodipodi.sourceforge.net/DTD/sodipodi-0.dtd"
   xmlns:inkscape="http://www.inkscape.org/namespaces/inkscape"
   width="210mm"
   height="297mm"
   viewBox="0 0 744.09448819 1052.3622047"
   id="svg2"
   version="1.1"
   inkscape:version="0.91 r13725"
   sodipodi:docname="unit.svg">
  <defs
     id="defs4" />
  <sodipodi:namedview
     id="base"
     pagecolor="#ffffff"
     bordercolor="#666666"
     borderopacity="1.0"
     inkscape:pageopacity="0.0"
     inkscape:pageshadow="2"
     inkscape:zoom="0.35"
     inkscape:cx="375"
     inkscape:cy="520"
     inkscape:document-units="px"
     inkscape:current-layer="layer1"
     showgrid="false"
     inkscape:window-width="1366"
     inkscape:window-height="744"
     inkscape:window-x="0"
     inkscape:window-y="24"
     inkscape:window-maximized="1" />
  <metadata
     id="metadata7">
    <rdf:RDF>
      <cc:Work
         rdf:about="">
        <dc:format>image/svg+xml</dc:format>
        <dc:type
           rdf:resource="http://purl.org/dc/dcmitype/StillImage" />
        <dc:title></dc:title>
      </cc:Work>
    </rdf:RDF>
  </metadata>
  <g
     inkscape:label="Layer 1"
     inkscape:groupmode="layer"
     id="layer1">
    <path
       style="fill:#0000ff"
       d="M -2.8574219 0.93359375 L -2.8574219 1060.9336 L 757.14258 1060.9336 L 757.14258 0.93359375 L -2.8574219 0.93359375 z M 382.74219 138.70898 C 385.91781 138.7912 389.66386 139.64433 393.92383 141.48242 L 393.92578 141.48242 C 410.1093 148.46618 419.67934 153.78608 426.04492 171.1543 C 428.1157 176.80434 428.07025 185.02494 428.86914 191.06836 C 429.24975 193.94758 429.85132 196.7937 430.3418 199.65625 C 434.00706 212.94482 430.77809 203.83059 436.4375 215.08008 C 440.41972 222.99574 441.70291 227.15056 446.33398 234.53516 C 449.42025 239.45645 456.32701 248.35709 459.76758 252.90039 C 466.31128 260.41711 473.71842 266.92181 480.3457 274.36133 C 482.21367 276.45825 483.87225 278.74805 485.85938 280.73242 C 486.85267 281.72435 488.11299 282.40561 489.24023 283.24219 L 494.30273 288.30664 C 498.00291 296.55849 499.242 297.21347 500.25781 304.47461 C 500.50447 306.23783 500.35983 308.04525 500.65625 309.80078 C 500.70575 310.09404 501.18464 310.16696 501.26562 310.45312 C 506.44522 328.75565 499.29561 306.8106 504.19727 321.46289 C 509.45264 328.72383 510.38383 338.26537 515.21875 345.83594 C 516.05766 347.14951 517.25267 348.19772 518.26953 349.37891 C 528.46104 361.76808 538.72397 374.03656 547.28125 387.64844 C 552.18457 395.22935 554.1137 404.28772 558.47852 412.11914 C 559.724 414.3538 561.51973 416.2349 562.97656 418.33789 C 564.12917 419.61383 565.24405 420.92444 566.43359 422.16602 C 570.62691 426.54282 571.11527 426.1064 574.98633 431.92969 C 579.20302 438.2729 581.77258 445.49059 584.63672 452.48828 C 585.46678 454.33627 586.16703 456.24726 587.12695 458.03125 C 587.59706 458.90496 588.46182 459.53189 588.9043 460.41992 C 594.43567 471.52089 589.83479 463.62342 593.64844 473.17773 C 593.92535 473.87147 594.46631 474.42749 594.875 475.05273 L 597.26953 482.0332 C 600.44351 486.86405 600.06733 492.60689 600.86719 498.01172 C 600.91339 498.32371 600.96742 496.88962 601.18164 497.12109 C 601.6952 497.67602 601.68725 498.54794 602 499.23633 C 602.42408 500.16975 602.92728 501.0659 603.39062 501.98047 C 607.88621 506.33266 610.55783 512.07327 615.13086 516.32617 C 623.24635 524.96854 612.01356 512.17756 620.74219 519.55078 L 627.74609 526.60938 C 627.41407 525.69974 627.41862 525.99474 628.58594 526.88477 C 634.32705 531.94563 629.25364 527.07432 636.20703 536.00781 C 636.45518 536.32664 635.50534 534.56178 635.74805 534.88477 C 639.25007 539.54521 640.25536 541.70876 642.51367 547.07031 C 645.03444 550.04896 645.35904 553.78837 646.03906 557.41406 C 647.02487 557.96044 648.07044 558.49675 648.02344 559.21484 C 649.45133 560.17566 650.81201 561.19749 651.74609 562.60742 C 656.21078 569.34656 655.19574 572.0501 654.63281 578.5625 C 652.197 606.74169 624.48778 545.1129 626.54492 573.32227 C 626.77908 576.5332 626.52261 577.46343 629.59375 580.65039 C 629.76729 580.83048 630.01832 581.03074 630.30469 581.24023 C 631.56321 581.94101 632.0996 582.23585 634.35742 583.51367 C 635.75211 584.303 632.13964 582.58259 630.30469 581.24023 C 626.92751 579.35975 625.72701 578.70124 627.83789 579.58789 C 625.5665 576.91504 623.1161 574.38335 621.02344 571.56836 C 620.56224 570.94797 620.49388 570.11443 620.25 569.38086 C 617.54583 561.24695 619.46141 564.14829 615.54102 556.49805 C 617.39355 557.2674 614.7355 556.27339 614.01172 553.48047 C 613.99284 553.40762 614.00456 553.38001 614.02734 553.37109 C 613.1655 552.44486 612.30053 551.51996 611.57617 550.48633 C 611.35165 550.16594 612.30035 550.78465 612.66211 550.93359 L 610.01367 548.5957 C 610.01047 548.5933 605.74008 544.95589 604.38281 543.28711 C 602.40721 542.21408 600.40886 541.17226 598.56445 539.89062 C 597.28064 538.99856 596.26365 537.77344 595.11328 536.71484 C 591.54062 533.11627 591.21779 533.05188 588.20703 528.98242 C 587.42173 527.92098 587.09806 526.55296 586.26172 525.53125 C 577.55666 514.89691 585.53028 526.26568 577.68164 514.44727 C 575.21399 509.23118 573.44087 505.0051 572.32227 499.2207 C 571.60603 495.5169 574.01769 500.93795 572.33789 496.01953 C 571.68732 494.11464 570.75853 492.31635 569.96875 490.46484 C 568.87099 485.06564 570.32964 491.2969 566.35742 481.63672 C 565.78581 480.2466 565.3934 478.78638 565.03711 477.32617 C 564.93771 476.91891 565.19433 476.43978 565 476.06836 C 555.09431 457.14048 566.48579 481.88547 558.19336 463.30859 C 555.88622 457.66914 554.10183 450.71901 549.96289 446.04492 C 548.3762 444.25308 546.52062 442.71438 544.9043 440.94922 C 543.02586 438.8978 541.29246 436.71889 539.48633 434.60352 C 537.45142 431.66343 534.14047 426.9975 532.51953 424.05078 C 528.76542 417.2262 526.87185 409.50452 523.01172 402.72656 C 515.09108 389.77375 504.97603 378.50037 495.53125 366.67773 C 493.5233 363.88275 491.30869 361.22565 489.50781 358.29297 C 484.07848 349.45151 482.63497 338.82057 476.96875 330.11914 C 474.96267 323.59462 472.93572 316.72046 472.21875 309.96484 C 472.10986 308.93878 470.95643 307.66335 471.66992 306.91797 C 471.73867 306.84615 471.81314 306.81014 471.88867 306.79102 C 470.62519 305.64175 468.47664 303.59547 464.24219 299.41602 C 460.51826 295.74046 457.54307 291.36214 453.87695 287.62891 C 434.62955 268.02918 458.03857 293.49516 436.97266 270.12695 C 431.54637 262.93292 426.00582 255.90792 421.25586 248.22461 C 417.17333 241.62091 414.18984 234.84442 410.88281 227.85742 C 408.96483 223.80516 406.68902 219.90421 405.12891 215.70117 C 403.76828 212.03553 403.14842 208.13608 402.1582 204.35352 C 400.67549 195.25225 400.30157 194.59194 399.77344 186.43555 C 399.68094 185.00718 399.68784 183.57383 399.66992 182.14258 C 399.65532 180.97755 400.23643 179.66772 399.67578 178.64648 C 397.35507 174.42093 393.09231 172.38349 388.98242 170.40234 C 388.68091 171.90088 388.42195 173.41573 388.02344 174.87891 C 393.68725 177.07741 398.87914 183.85748 400 195.21875 C 401.27919 208.18484 401.57389 221.2329 402.82031 234.20117 C 404.95911 256.45429 405.32319 245.70851 406.38672 269.83789 C 407.13589 286.83495 406.69337 299.24082 406.42578 316.16406 C 405.78335 336.45979 405.44415 356.7607 405.44531 377.06641 C 405.44565 383.03429 405.02046 389.02506 405.53516 394.9707 C 405.98418 400.15715 407.49474 405.19691 408.32617 410.33594 C 409.42383 417.12043 410.3238 423.93654 411.32227 430.73633 C 411.84524 438.18631 412.13932 445.65551 412.89062 453.08594 C 413.57705 459.87467 414.85523 466.59219 415.63281 473.37109 C 417.30833 487.97817 418.83961 502.60835 419.91992 517.27148 C 421.38857 537.2056 421.04006 541.83389 421.06055 561.63281 C 419.65191 596.89833 419.69527 632.17325 419.99805 667.45508 C 420.17848 696.89929 419.98272 726.34473 419.98242 755.78906 C 420.02012 766.48698 420.52481 777.0434 418.44922 787.62891 C 416.30643 798.5571 411.77202 808.61279 407.40234 818.76367 C 405.98632 823.49069 402.67539 827.31186 400.81055 831.81445 C 398.73902 836.81606 401.44659 832.36501 401.41211 832.90234 C 401.09038 837.91612 400.64075 838.80519 399.41211 842.81641 C 400.21939 845.48006 389.93739 863.08002 396.51758 851.66992 C 394.76795 859.51839 391.965 863.68909 386.63281 869.10547 C 366.79005 889.26148 345.59105 867.80184 366.53711 848.79492 C 367.18273 848.20907 367.77006 847.45503 368.24609 846.82031 C 368.42715 844.18476 368.82558 843.19616 371.18164 838.56641 C 371.31066 836.8032 371.62401 835.05392 372.19531 834.12305 C 372.3366 833.72583 372.21218 832.81936 372.61914 832.92969 C 372.82513 832.98554 372.88107 833.37794 372.89258 833.74023 C 373.00781 831.30072 372.70999 828.82748 373.12305 826.42188 C 374.33288 819.37609 378.25895 813.79257 381.16797 807.44922 C 384.48418 799.77648 388.30107 792.04652 390.13086 783.83398 C 392.19944 774.54971 391.26495 765.20308 391.41211 755.78906 C 391.41251 726.42655 391.60618 697.06356 391.42773 667.70117 C 391.12432 632.34042 391.06574 596.9847 392.48828 561.64062 C 392.49838 543.51017 392.83143 538.33437 391.48633 520.08789 C 390.42931 505.74916 388.94272 491.44116 387.3125 477.15625 C 386.46898 469.76488 385.13267 462.43309 384.38672 455.03125 C 383.71176 448.33381 383.49702 441.59755 383.05273 434.88086 C 382.08691 428.2878 381.16463 421.68824 380.15625 415.10156 C 379.13507 408.43124 377.54282 401.83456 376.96484 395.11133 C 376.44613 389.0775 376.8746 382.99943 376.875 376.94336 C 376.876 356.52514 377.21216 336.1113 377.85938 315.70312 C 378.11289 300.30262 378.54665 287.44217 377.89844 272.0293 C 377.01411 251.00136 376.33837 257.19515 374.32227 236.23633 C 374.17876 234.7445 372.50197 210.65671 371.86523 201.49609 C 371.83025 201.55899 371.77047 201.69276 371.74414 201.73242 C 371.53532 202.04696 371.78052 200.24178 371.66602 200.60156 C 371.17092 202.15813 371.00964 203.80389 370.58398 205.38086 C 370.33443 206.30539 369.95605 207.19084 369.64258 208.0957 C 369.4996 207.63201 369.26504 206.22244 369.21484 206.70508 C 368.38825 214.65091 370.923 214.53991 365.16406 222.69141 C 364.56202 223.54357 363.5428 224.8995 362.50586 226.06836 C 362.04199 227.4143 361.57684 228.65601 361.23438 229.32422 C 360.26997 231.20582 358.65733 232.68655 357.21484 234.23242 C 354.94076 236.66948 355.67843 234.57303 355.05469 233.09766 C 354.77121 235.66557 355.05645 238.36159 354.20508 240.80078 C 353.56983 242.62078 352.55645 244.27394 351.47852 245.89062 C 353.02029 257.3794 351.59169 264.69883 343.24023 273.62305 C 342.12512 272.4832 341.42188 276.27323 340.82031 277.75 C 337.37049 286.21891 335.31817 289.49302 329.62695 296.22461 C 329.1892 296.4347 328.52574 296.44428 328.33008 296.88867 C 326.10852 301.93421 324.7627 307.5561 321.14648 311.89062 C 320.0149 313.36584 319.00862 314.94618 317.75195 316.31641 C 317.51767 316.57185 316.88957 315.68252 316.75977 316.00391 C 314.45845 321.70213 313.73184 328.63625 308.1875 332.64062 C 305.36958 335.67075 300.72884 339.13548 299.15625 343.12891 C 296.76983 349.18897 297.01493 356.20415 293.81641 362.01367 C 292.80948 366.04684 291.84478 370.45399 290.11523 374.21289 C 285.94363 383.27917 278.13843 390.70696 270.86719 397.20898 C 268.01527 398.91567 265.26672 400.80917 262.31055 402.32812 C 255.43333 405.86187 247.68278 406.53869 243.86914 414.25 C 241.2387 418.82657 237.98851 423.1896 235.48633 427.81836 C 232.59653 433.16417 230.57349 438.98595 227.25781 444.11523 C 224.97874 447.78859 222.88707 451.58618 220.42383 455.13867 C 215.61994 462.06685 209.34243 467.86371 205.46289 475.45898 C 202.49653 483.52908 199.79334 491.64559 195.85352 499.32812 C 190.04728 510.65015 182.22824 520.79191 176.2832 532.03516 C 174.34139 535.33981 172.23808 538.55523 170.45703 541.94922 C 163.06272 556.03989 168.03914 549.41197 159.87305 562.94531 C 152.20251 575.65737 142.93252 586.95581 130.78125 595.67773 C 107.80341 612.17072 92.155344 588.67185 114.93359 571.9043 C 126.42374 563.44617 134.04123 551.75934 140.2793 539.16016 C 141.78482 536.11944 142.96329 532.92083 144.54297 529.91797 C 146.73213 525.75651 149.23032 521.76576 151.57422 517.68945 C 157.46494 506.44328 165.3462 496.3547 171.11133 485.03906 C 174.25501 478.8687 176.26181 472.08765 178.64453 465.60352 C 182.93834 454.84901 191.42821 446.97539 197.83398 437.64453 C 199.72223 434.89405 201.21884 431.89427 202.97656 429.05859 C 207.47455 418.90578 213.60634 409.71225 219.05664 400.08398 C 224.84397 389.7563 234.05187 383.2996 244.66211 378.57422 C 254.90437 374.01272 248.92712 377.88884 255.53516 373.09766 C 258.77423 368.83669 263.56674 365.00257 265.42773 359.83008 C 265.49863 359.63298 265.01182 359.5414 265.04102 359.33398 C 265.2435 357.8958 265.74331 356.51492 266.09375 355.10547 C 270.21148 344.49465 270.33637 335.63234 276.71484 325.47656 C 278.85235 322.07322 284.16929 316.52215 287.24805 313.20117 C 287.6637 312.78338 288.10224 312.38496 288.53516 311.98242 C 288.43561 311.98706 288.342 311.96892 288.26367 311.9043 C 287.34863 311.14933 288.73904 309.5641 289.19922 308.4707 C 290.15829 306.19189 291.11965 303.8806 292.50391 301.83203 C 299.5715 291.37267 296.39355 298.97417 297.87305 295.31836 C 300.44948 292.59724 300.4385 287.79558 304.04492 282.38672 C 305.33378 280.4537 307.0022 278.8021 308.48047 277.00977 C 310.01306 274.14579 312.75748 272.1021 314.33008 269.2793 C 314.49396 268.98513 313.75535 268.73898 313.81836 268.4082 C 314.10247 266.9168 314.66195 265.47632 315.31445 264.10547 C 318.56651 257.27316 318.71084 258.00979 323.96289 252.53516 C 323.8273 252.16575 326.63523 247.86393 324.43555 251.00195 C 324.13762 251.42698 324.19199 252.1341 323.74414 252.39648 C 323.53142 252.52111 323.30774 250.56508 323.03125 248.72656 C 322.12013 240.63439 322.68248 239.39463 326.52344 232.89258 C 328.29012 225.08897 327.53153 224.78683 332.95508 217.94531 C 333.95673 216.68178 335.2131 215.65015 336.42773 214.58008 C 336.96263 212.82014 337.98811 211.19963 338.73438 209.5 C 338.65548 209.57152 338.57263 209.63903 338.49414 209.71094 L 338.85352 209.24609 C 338.8177 209.33172 338.77177 209.41483 338.73438 209.5 C 339.38518 208.90998 340.04528 208.32934 340.71289 207.75586 C 341.13343 205.09157 341.77117 202.46614 342.29688 199.82031 C 344.69153 191.09135 347.58394 185.5666 351.45312 178.52539 C 351.48512 178.43559 351.59807 178.1743 351.54883 178.25586 C 344.60525 189.74599 351.58252 172.06013 353.69922 170.25195 C 355.7713 168.48191 358.01789 166.92971 360.23828 165.3457 C 360.22286 165.30246 360.23004 165.2383 360.28906 165.12695 C 360.30981 165.08782 360.3377 165.05407 360.35938 165.01562 C 358.42658 166.08497 359.16864 165.48132 360.5625 164.52344 C 361.06724 159.57325 363.03693 156.99223 365.36133 152.92578 C 367.13401 149.82454 369.08184 147.3588 371.10156 145.44336 C 372.42959 141.63547 375.96701 138.96234 381.41602 138.7207 C 381.84621 138.70163 382.28853 138.69724 382.74219 138.70898 z M 365.45312 160.19922 C 365.46416 160.09622 364.02278 161.2947 363.125 162.20312 C 363.88127 161.62405 364.64867 161.05209 365.29883 160.38477 C 365.40404 160.27678 365.45121 160.2172 365.45312 160.19922 z M 347.54883 201.23047 C 347.15545 201.23452 344.76736 202.74651 343.99219 203.50586 C 342.97143 204.5058 342.32988 205.82123 341.55664 207.03125 C 343.61272 205.27408 345.66941 203.5154 347.45898 201.49609 C 347.62507 201.30869 347.63961 201.22953 347.54883 201.23047 z M 338.42383 212.14062 C 338.41484 212.13948 338.40158 212.15111 338.38086 212.17969 C 338.16832 212.47292 337.89796 212.94593 337.62109 213.46094 C 337.78446 213.30061 337.9585 213.15097 338.11523 212.98438 C 338.28455 212.80441 338.48674 212.14867 338.42383 212.14062 z M 364.35352 220.31836 C 364.38175 220.21368 364.1835 220.86309 364.06641 221.24414 C 364.0762 221.23666 364.08603 221.228 364.0957 221.2207 C 364.14017 221.06461 364.3415 220.3629 364.35352 220.31836 z M 327.66406 230.94531 C 327.19033 231.29581 327.48525 230.70804 326.66406 232.65234 C 326.98021 232.11761 327.30094 231.56188 327.66406 230.94531 z M 470.86914 305.06055 C 471.07144 305.28372 472.29854 306.63069 472.94531 307.42773 C 473.25204 307.74128 473.56231 308.08195 473.85156 308.25977 C 471.31789 305.54833 470.69188 304.865 470.86914 305.06055 z "
       id="rect3336" />
  </g>
</svg>
